<svg xmlns="http://www.w3.org/2000/svg" xmlns:xlink="http://www.w3.org/1999/xlink" width="500" zoomAndPan="magnify" viewBox="0 0 375 374.999991" height="500" preserveAspectRatio="xMidYMid meet" version="1.0"><defs><g/><clipPath id="46131ea28a"><path d="M 128.921875 89.5625 L 245.921875 89.5625 L 245.921875 206.5625 L 128.921875 206.5625 Z M 128.921875 89.5625 " clip-rule="nonzero"/></clipPath><clipPath id="3c895510ed"><path d="M 160.441406 89.5625 L 214.558594 89.5625 C 215.589844 89.5625 216.621094 89.613281 217.648438 89.714844 C 218.675781 89.816406 219.695312 89.96875 220.707031 90.167969 C 221.71875 90.371094 222.71875 90.621094 223.707031 90.917969 C 224.695312 91.21875 225.667969 91.566406 226.621094 91.960938 C 227.574219 92.355469 228.503906 92.796875 229.417969 93.285156 C 230.328125 93.769531 231.210938 94.300781 232.070312 94.875 C 232.925781 95.449219 233.753906 96.0625 234.554688 96.714844 C 235.351562 97.371094 236.113281 98.0625 236.84375 98.792969 C 237.574219 99.523438 238.265625 100.289062 238.921875 101.085938 C 239.578125 101.882812 240.191406 102.710938 240.765625 103.570312 C 241.339844 104.429688 241.867188 105.3125 242.355469 106.222656 C 242.839844 107.132812 243.28125 108.066406 243.675781 109.019531 C 244.070312 109.972656 244.417969 110.941406 244.71875 111.929688 C 245.019531 112.917969 245.269531 113.917969 245.46875 114.929688 C 245.671875 115.945312 245.824219 116.964844 245.925781 117.992188 C 246.027344 119.019531 246.074219 120.046875 246.074219 121.078125 L 246.074219 175.199219 C 246.074219 176.230469 246.027344 177.261719 245.925781 178.289062 C 245.824219 179.316406 245.671875 180.335938 245.46875 181.347656 C 245.269531 182.359375 245.019531 183.359375 244.71875 184.347656 C 244.417969 185.335938 244.070312 186.304688 243.675781 187.257812 C 243.28125 188.210938 242.839844 189.144531 242.355469 190.054688 C 241.867188 190.964844 241.339844 191.851562 240.765625 192.707031 C 240.191406 193.566406 239.578125 194.394531 238.921875 195.191406 C 238.265625 195.988281 237.574219 196.753906 236.84375 197.484375 C 236.113281 198.214844 235.351562 198.90625 234.554688 199.5625 C 233.753906 200.214844 232.925781 200.828125 232.070312 201.402344 C 231.210938 201.976562 230.328125 202.507812 229.417969 202.992188 C 228.503906 203.480469 227.574219 203.921875 226.621094 204.316406 C 225.667969 204.710938 224.695312 205.058594 223.707031 205.359375 C 222.71875 205.65625 221.71875 205.90625 220.707031 206.109375 C 219.695312 206.3125 218.675781 206.460938 217.648438 206.5625 C 216.621094 206.664062 215.589844 206.714844 214.558594 206.714844 L 160.441406 206.714844 C 159.410156 206.714844 158.378906 206.664062 157.351562 206.5625 C 156.324219 206.460938 155.304688 206.3125 154.292969 206.109375 C 153.28125 205.90625 152.28125 205.65625 151.292969 205.359375 C 150.304688 205.058594 149.332031 204.710938 148.378906 204.316406 C 147.425781 203.921875 146.492188 203.480469 145.582031 202.992188 C 144.671875 202.507812 143.789062 201.976562 142.929688 201.402344 C 142.074219 200.828125 141.246094 200.214844 140.445312 199.5625 C 139.648438 198.90625 138.882812 198.214844 138.15625 197.484375 C 137.425781 196.753906 136.734375 195.988281 136.078125 195.191406 C 135.421875 194.394531 134.808594 193.566406 134.234375 192.707031 C 133.660156 191.851562 133.132812 190.964844 132.644531 190.054688 C 132.160156 189.144531 131.71875 188.210938 131.324219 187.257812 C 130.929688 186.304688 130.582031 185.335938 130.28125 184.347656 C 129.980469 183.359375 129.730469 182.359375 129.53125 181.347656 C 129.328125 180.335938 129.175781 179.316406 129.074219 178.289062 C 128.972656 177.261719 128.921875 176.230469 128.921875 175.199219 L 128.921875 121.078125 C 128.921875 120.046875 128.972656 119.019531 129.074219 117.992188 C 129.175781 116.964844 129.328125 115.945312 129.53125 114.929688 C 129.730469 113.917969 129.980469 112.917969 130.28125 111.929688 C 130.582031 110.941406 130.929688 109.972656 131.324219 109.019531 C 131.71875 108.066406 132.160156 107.132812 132.644531 106.222656 C 133.132812 105.3125 133.660156 104.429688 134.234375 103.570312 C 134.808594 102.710938 135.421875 101.882812 136.078125 101.085938 C 136.734375 100.289062 137.425781 99.523438 138.15625 98.792969 C 138.882812 98.0625 139.648438 97.371094 140.445312 96.714844 C 141.246094 96.0625 142.074219 95.449219 142.929688 94.875 C 143.789062 94.300781 144.671875 93.769531 145.582031 93.285156 C 146.492188 92.796875 147.425781 92.355469 148.378906 91.960938 C 149.332031 91.566406 150.304688 91.21875 151.292969 90.917969 C 152.28125 90.621094 153.28125 90.371094 154.292969 90.167969 C 155.304688 89.96875 156.324219 89.816406 157.351562 89.714844 C 158.378906 89.613281 159.410156 89.5625 160.441406 89.5625 Z M 160.441406 89.5625 " clip-rule="nonzero"/></clipPath><linearGradient x1="21.457464" gradientTransform="matrix(0, -0.496408, 0.496408, 0, 128.923722, 206.715055)" y1="-15.316494" x2="214.503144" gradientUnits="userSpaceOnUse" y2="251.260396" id="b41e6dccd8"><stop stop-opacity="1" stop-color="rgb(46.417236%, 67.46521%, 94.337463%)" offset="0"/><stop stop-opacity="1" stop-color="rgb(46.174622%, 67.263794%, 94.198608%)" offset="0.00390625"/><stop stop-opacity="1" stop-color="rgb(45.933533%, 67.063904%, 94.059753%)" offset="0.0078125"/><stop stop-opacity="1" stop-color="rgb(45.690918%, 66.862488%, 93.920898%)" offset="0.0117187"/><stop stop-opacity="1" stop-color="rgb(45.448303%, 66.662598%, 93.783569%)" offset="0.015625"/><stop stop-opacity="1" stop-color="rgb(45.205688%, 66.461182%, 93.644714%)" offset="0.0195312"/><stop stop-opacity="1" stop-color="rgb(44.9646%, 66.261292%, 93.505859%)" offset="0.0234375"/><stop stop-opacity="1" stop-color="rgb(44.721985%, 66.059875%, 93.367004%)" offset="0.0273438"/><stop stop-opacity="1" stop-color="rgb(44.480896%, 65.859985%, 93.229675%)" offset="0.03125"/><stop stop-opacity="1" stop-color="rgb(44.238281%, 65.658569%, 93.09082%)" offset="0.0351563"/><stop stop-opacity="1" stop-color="rgb(43.995667%, 65.458679%, 92.953491%)" offset="0.0390625"/><stop stop-opacity="1" stop-color="rgb(43.753052%, 65.257263%, 92.814636%)" offset="0.0429688"/><stop stop-opacity="1" stop-color="rgb(43.511963%, 65.057373%, 92.675781%)" offset="0.046875"/><stop stop-opacity="1" stop-color="rgb(43.269348%, 64.855957%, 92.536926%)" offset="0.0507812"/><stop stop-opacity="1" stop-color="rgb(43.028259%, 64.656067%, 92.399597%)" offset="0.0546875"/><stop stop-opacity="1" stop-color="rgb(42.785645%, 64.454651%, 92.260742%)" offset="0.0585938"/><stop stop-opacity="1" stop-color="rgb(42.54303%, 64.254761%, 92.121887%)" offset="0.0625"/><stop stop-opacity="1" stop-color="rgb(42.300415%, 64.053345%, 91.983032%)" offset="0.0664062"/><stop stop-opacity="1" stop-color="rgb(42.059326%, 63.853455%, 91.845703%)" offset="0.0703125"/><stop stop-opacity="1" stop-color="rgb(41.816711%, 63.652039%, 91.706848%)" offset="0.0742188"/><stop stop-opacity="1" stop-color="rgb(41.575623%, 63.452148%, 91.567993%)" offset="0.078125"/><stop stop-opacity="1" stop-color="rgb(41.333008%, 63.250732%, 91.429138%)" offset="0.0820312"/><stop stop-opacity="1" stop-color="rgb(41.090393%, 63.050842%, 91.291809%)" offset="0.0859375"/><stop stop-opacity="1" stop-color="rgb(40.847778%, 62.849426%, 91.152954%)" offset="0.0898438"/><stop stop-opacity="1" stop-color="rgb(40.606689%, 62.649536%, 91.015625%)" offset="0.09375"/><stop stop-opacity="1" stop-color="rgb(40.364075%, 62.44812%, 90.87677%)" offset="0.0976562"/><stop stop-opacity="1" stop-color="rgb(40.12146%, 62.24823%, 90.737915%)" offset="0.101562"/><stop stop-opacity="1" stop-color="rgb(39.878845%, 62.046814%, 90.59906%)" offset="0.105469"/><stop stop-opacity="1" stop-color="rgb(39.637756%, 61.846924%, 90.461731%)" offset="0.109375"/><stop stop-opacity="1" stop-color="rgb(39.395142%, 61.645508%, 90.322876%)" offset="0.113281"/><stop stop-opacity="1" stop-color="rgb(39.154053%, 61.445618%, 90.184021%)" offset="0.117188"/><stop stop-opacity="1" stop-color="rgb(38.911438%, 61.244202%, 90.045166%)" offset="0.121094"/><stop stop-opacity="1" stop-color="rgb(38.668823%, 61.044312%, 89.907837%)" offset="0.125"/><stop stop-opacity="1" stop-color="rgb(38.426208%, 60.842896%, 89.768982%)" offset="0.128906"/><stop stop-opacity="1" stop-color="rgb(38.18512%, 60.643005%, 89.630127%)" offset="0.132812"/><stop stop-opacity="1" stop-color="rgb(37.942505%, 60.441589%, 89.491272%)" offset="0.136719"/><stop stop-opacity="1" stop-color="rgb(37.701416%, 60.241699%, 89.353943%)" offset="0.140625"/><stop stop-opacity="1" stop-color="rgb(37.458801%, 60.040283%, 89.215088%)" offset="0.144531"/><stop stop-opacity="1" stop-color="rgb(37.216187%, 59.840393%, 89.076233%)" offset="0.148438"/><stop stop-opacity="1" stop-color="rgb(36.973572%, 59.638977%, 88.937378%)" offset="0.152344"/><stop stop-opacity="1" stop-color="rgb(36.732483%, 59.439087%, 88.800049%)" offset="0.15625"/><stop stop-opacity="1" stop-color="rgb(36.489868%, 59.237671%, 88.661194%)" offset="0.160156"/><stop stop-opacity="1" stop-color="rgb(36.247253%, 59.037781%, 88.523865%)" offset="0.164062"/><stop stop-opacity="1" stop-color="rgb(36.004639%, 58.836365%, 88.38501%)" offset="0.167969"/><stop stop-opacity="1" stop-color="rgb(35.76355%, 58.636475%, 88.246155%)" offset="0.171875"/><stop stop-opacity="1" stop-color="rgb(35.520935%, 58.435059%, 88.1073%)" offset="0.175781"/><stop stop-opacity="1" stop-color="rgb(35.279846%, 58.235168%, 87.969971%)" offset="0.179688"/><stop stop-opacity="1" stop-color="rgb(35.037231%, 58.033752%, 87.831116%)" offset="0.183594"/><stop stop-opacity="1" stop-color="rgb(34.794617%, 57.833862%, 87.692261%)" offset="0.1875"/><stop stop-opacity="1" stop-color="rgb(34.552002%, 57.632446%, 87.553406%)" offset="0.191406"/><stop stop-opacity="1" stop-color="rgb(34.310913%, 57.432556%, 87.416077%)" offset="0.195312"/><stop stop-opacity="1" stop-color="rgb(34.068298%, 57.23114%, 87.277222%)" offset="0.199219"/><stop stop-opacity="1" stop-color="rgb(33.827209%, 57.03125%, 87.138367%)" offset="0.203125"/><stop stop-opacity="1" stop-color="rgb(33.584595%, 56.829834%, 86.999512%)" offset="0.207031"/><stop stop-opacity="1" stop-color="rgb(33.34198%, 56.629944%, 86.862183%)" offset="0.210937"/><stop stop-opacity="1" stop-color="rgb(33.099365%, 56.428528%, 86.723328%)" offset="0.214844"/><stop stop-opacity="1" stop-color="rgb(32.858276%, 56.228638%, 86.584473%)" offset="0.21875"/><stop stop-opacity="1" stop-color="rgb(32.615662%, 56.027222%, 86.445618%)" offset="0.222656"/><stop stop-opacity="1" stop-color="rgb(32.374573%, 55.827332%, 86.308289%)" offset="0.226563"/><stop stop-opacity="1" stop-color="rgb(32.131958%, 55.625916%, 86.169434%)" offset="0.230469"/><stop stop-opacity="1" stop-color="rgb(31.889343%, 55.426025%, 86.032104%)" offset="0.234375"/><stop stop-opacity="1" stop-color="rgb(31.646729%, 55.224609%, 85.89325%)" offset="0.238281"/><stop stop-opacity="1" stop-color="rgb(31.40564%, 55.024719%, 85.754395%)" offset="0.242187"/><stop stop-opacity="1" stop-color="rgb(31.163025%, 54.823303%, 85.61554%)" offset="0.246094"/><stop stop-opacity="1" stop-color="rgb(30.92041%, 54.623413%, 85.47821%)" offset="0.25"/><stop stop-opacity="1" stop-color="rgb(30.677795%, 54.421997%, 85.339355%)" offset="0.253906"/><stop stop-opacity="1" stop-color="rgb(30.436707%, 54.222107%, 85.2005%)" offset="0.257812"/><stop stop-opacity="1" stop-color="rgb(30.194092%, 54.020691%, 85.061646%)" offset="0.261719"/><stop stop-opacity="1" stop-color="rgb(29.953003%, 53.820801%, 84.924316%)" offset="0.265625"/><stop stop-opacity="1" stop-color="rgb(29.710388%, 53.619385%, 84.785461%)" offset="0.269531"/><stop stop-opacity="1" stop-color="rgb(29.467773%, 53.419495%, 84.646606%)" offset="0.273438"/><stop stop-opacity="1" stop-color="rgb(29.225159%, 53.218079%, 84.507751%)" offset="0.277344"/><stop stop-opacity="1" stop-color="rgb(28.98407%, 53.018188%, 84.370422%)" offset="0.28125"/><stop stop-opacity="1" stop-color="rgb(28.741455%, 52.816772%, 84.231567%)" offset="0.285156"/><stop stop-opacity="1" stop-color="rgb(28.500366%, 52.616882%, 84.092712%)" offset="0.289062"/><stop stop-opacity="1" stop-color="rgb(28.257751%, 52.415466%, 83.953857%)" offset="0.292969"/><stop stop-opacity="1" stop-color="rgb(28.015137%, 52.215576%, 83.816528%)" offset="0.296875"/><stop stop-opacity="1" stop-color="rgb(27.772522%, 52.01416%, 83.677673%)" offset="0.300781"/><stop stop-opacity="1" stop-color="rgb(27.531433%, 51.81427%, 83.540344%)" offset="0.304688"/><stop stop-opacity="1" stop-color="rgb(27.288818%, 51.612854%, 83.401489%)" offset="0.308594"/><stop stop-opacity="1" stop-color="rgb(27.046204%, 51.412964%, 83.262634%)" offset="0.3125"/><stop stop-opacity="1" stop-color="rgb(26.803589%, 51.211548%, 83.123779%)" offset="0.316406"/><stop stop-opacity="1" stop-color="rgb(26.5625%, 51.011658%, 82.98645%)" offset="0.320312"/><stop stop-opacity="1" stop-color="rgb(26.319885%, 50.810242%, 82.847595%)" offset="0.324219"/><stop stop-opacity="1" stop-color="rgb(26.078796%, 50.610352%, 82.70874%)" offset="0.328125"/><stop stop-opacity="1" stop-color="rgb(25.836182%, 50.408936%, 82.569885%)" offset="0.332031"/><stop stop-opacity="1" stop-color="rgb(25.593567%, 50.209045%, 82.432556%)" offset="0.335938"/><stop stop-opacity="1" stop-color="rgb(25.350952%, 50.007629%, 82.293701%)" offset="0.339844"/><stop stop-opacity="1" stop-color="rgb(25.109863%, 49.807739%, 82.154846%)" offset="0.34375"/><stop stop-opacity="1" stop-color="rgb(24.867249%, 49.606323%, 82.015991%)" offset="0.347656"/><stop stop-opacity="1" stop-color="rgb(24.62616%, 49.406433%, 81.878662%)" offset="0.351562"/><stop stop-opacity="1" stop-color="rgb(24.383545%, 49.205017%, 81.739807%)" offset="0.355469"/><stop stop-opacity="1" stop-color="rgb(24.14093%, 49.005127%, 81.600952%)" offset="0.359375"/><stop stop-opacity="1" stop-color="rgb(23.898315%, 48.803711%, 81.462097%)" offset="0.363281"/><stop stop-opacity="1" stop-color="rgb(23.657227%, 48.603821%, 81.324768%)" offset="0.367188"/><stop stop-opacity="1" stop-color="rgb(23.414612%, 48.402405%, 81.185913%)" offset="0.371094"/><stop stop-opacity="1" stop-color="rgb(23.173523%, 48.202515%, 81.048584%)" offset="0.375"/><stop stop-opacity="1" stop-color="rgb(22.930908%, 48.001099%, 80.909729%)" offset="0.378906"/><stop stop-opacity="1" stop-color="rgb(22.688293%, 47.801208%, 80.770874%)" offset="0.382812"/><stop stop-opacity="1" stop-color="rgb(22.445679%, 47.599792%, 80.632019%)" offset="0.386719"/><stop stop-opacity="1" stop-color="rgb(22.20459%, 47.399902%, 80.49469%)" offset="0.390625"/><stop stop-opacity="1" stop-color="rgb(21.961975%, 47.198486%, 80.355835%)" offset="0.394531"/><stop stop-opacity="1" stop-color="rgb(21.71936%, 46.998596%, 80.21698%)" offset="0.398438"/><stop stop-opacity="1" stop-color="rgb(21.476746%, 46.79718%, 80.078125%)" offset="0.402344"/><stop stop-opacity="1" stop-color="rgb(21.235657%, 46.59729%, 79.940796%)" offset="0.40625"/><stop stop-opacity="1" stop-color="rgb(20.993042%, 46.395874%, 79.801941%)" offset="0.410156"/><stop stop-opacity="1" stop-color="rgb(20.751953%, 46.195984%, 79.663086%)" offset="0.414062"/><stop stop-opacity="1" stop-color="rgb(20.509338%, 45.994568%, 79.524231%)" offset="0.417969"/><stop stop-opacity="1" stop-color="rgb(20.266724%, 45.794678%, 79.386902%)" offset="0.421875"/><stop stop-opacity="1" stop-color="rgb(20.024109%, 45.593262%, 79.248047%)" offset="0.425781"/><stop stop-opacity="1" stop-color="rgb(19.78302%, 45.393372%, 79.109192%)" offset="0.429688"/><stop stop-opacity="1" stop-color="rgb(19.540405%, 45.191956%, 78.970337%)" offset="0.433594"/><stop stop-opacity="1" stop-color="rgb(19.299316%, 44.992065%, 78.833008%)" offset="0.4375"/><stop stop-opacity="1" stop-color="rgb(19.056702%, 44.790649%, 78.694153%)" offset="0.441406"/><stop stop-opacity="1" stop-color="rgb(18.814087%, 44.590759%, 78.556824%)" offset="0.445312"/><stop stop-opacity="1" stop-color="rgb(18.571472%, 44.389343%, 78.417969%)" offset="0.449219"/><stop stop-opacity="1" stop-color="rgb(18.330383%, 44.189453%, 78.279114%)" offset="0.453125"/><stop stop-opacity="1" stop-color="rgb(18.087769%, 43.988037%, 78.140259%)" offset="0.457031"/><stop stop-opacity="1" stop-color="rgb(17.845154%, 43.788147%, 78.00293%)" offset="0.460938"/><stop stop-opacity="1" stop-color="rgb(17.602539%, 43.586731%, 77.864075%)" offset="0.464844"/><stop stop-opacity="1" stop-color="rgb(17.36145%, 43.386841%, 77.72522%)" offset="0.46875"/><stop stop-opacity="1" stop-color="rgb(17.118835%, 43.185425%, 77.586365%)" offset="0.472656"/><stop stop-opacity="1" stop-color="rgb(16.877747%, 42.985535%, 77.449036%)" offset="0.476562"/><stop stop-opacity="1" stop-color="rgb(16.635132%, 42.784119%, 77.310181%)" offset="0.480469"/><stop stop-opacity="1" stop-color="rgb(16.392517%, 42.584229%, 77.171326%)" offset="0.484375"/><stop stop-opacity="1" stop-color="rgb(16.149902%, 42.382812%, 77.032471%)" offset="0.488281"/><stop stop-opacity="1" stop-color="rgb(15.908813%, 42.182922%, 76.895142%)" offset="0.492188"/><stop stop-opacity="1" stop-color="rgb(15.666199%, 41.981506%, 76.756287%)" offset="0.496094"/><stop stop-opacity="1" stop-color="rgb(15.42511%, 41.781616%, 76.617432%)" offset="0.5"/><stop stop-opacity="1" stop-color="rgb(15.182495%, 41.5802%, 76.478577%)" offset="0.503906"/><stop stop-opacity="1" stop-color="rgb(14.93988%, 41.38031%, 76.341248%)" offset="0.507812"/><stop stop-opacity="1" stop-color="rgb(14.697266%, 41.178894%, 76.202393%)" offset="0.511719"/><stop stop-opacity="1" stop-color="rgb(14.456177%, 40.979004%, 76.065063%)" offset="0.515625"/><stop stop-opacity="1" stop-color="rgb(14.213562%, 40.777588%, 75.926208%)" offset="0.519531"/><stop stop-opacity="1" stop-color="rgb(13.972473%, 40.577698%, 75.787354%)" offset="0.523438"/><stop stop-opacity="1" stop-color="rgb(13.729858%, 40.376282%, 75.648499%)" offset="0.527344"/><stop stop-opacity="1" stop-color="rgb(13.487244%, 40.176392%, 75.511169%)" offset="0.53125"/><stop stop-opacity="1" stop-color="rgb(13.244629%, 39.974976%, 75.372314%)" offset="0.535156"/><stop stop-opacity="1" stop-color="rgb(13.00354%, 39.775085%, 75.233459%)" offset="0.539063"/><stop stop-opacity="1" stop-color="rgb(12.760925%, 39.573669%, 75.094604%)" offset="0.542969"/><stop stop-opacity="1" stop-color="rgb(12.518311%, 39.373779%, 74.957275%)" offset="0.546875"/><stop stop-opacity="1" stop-color="rgb(12.275696%, 39.172363%, 74.81842%)" offset="0.550781"/><stop stop-opacity="1" stop-color="rgb(12.034607%, 38.972473%, 74.679565%)" offset="0.554688"/><stop stop-opacity="1" stop-color="rgb(11.791992%, 38.771057%, 74.54071%)" offset="0.558594"/><stop stop-opacity="1" stop-color="rgb(11.550903%, 38.571167%, 74.403381%)" offset="0.5625"/><stop stop-opacity="1" stop-color="rgb(11.308289%, 38.369751%, 74.264526%)" offset="0.566406"/><stop stop-opacity="1" stop-color="rgb(11.065674%, 38.169861%, 74.125671%)" offset="0.570312"/><stop stop-opacity="1" stop-color="rgb(10.823059%, 37.968445%, 73.986816%)" offset="0.574219"/><stop stop-opacity="1" stop-color="rgb(10.58197%, 37.768555%, 73.849487%)" offset="0.578125"/><stop stop-opacity="1" stop-color="rgb(10.339355%, 37.567139%, 73.710632%)" offset="0.582031"/><stop stop-opacity="1" stop-color="rgb(10.098267%, 37.367249%, 73.573303%)" offset="0.585938"/><stop stop-opacity="1" stop-color="rgb(9.855652%, 37.165833%, 73.434448%)" offset="0.589844"/><stop stop-opacity="1" stop-color="rgb(9.613037%, 36.965942%, 73.295593%)" offset="0.59375"/><stop stop-opacity="1" stop-color="rgb(9.370422%, 36.764526%, 73.156738%)" offset="0.597656"/><stop stop-opacity="1" stop-color="rgb(9.129333%, 36.564636%, 73.019409%)" offset="0.601562"/><stop stop-opacity="1" stop-color="rgb(8.886719%, 36.36322%, 72.880554%)" offset="0.605469"/><stop stop-opacity="1" stop-color="rgb(8.644104%, 36.16333%, 72.741699%)" offset="0.609375"/><stop stop-opacity="1" stop-color="rgb(8.401489%, 35.961914%, 72.602844%)" offset="0.613281"/><stop stop-opacity="1" stop-color="rgb(8.1604%, 35.762024%, 72.465515%)" offset="0.617188"/><stop stop-opacity="1" stop-color="rgb(7.917786%, 35.560608%, 72.32666%)" offset="0.621094"/><stop stop-opacity="1" stop-color="rgb(7.676697%, 35.360718%, 72.187805%)" offset="0.625"/><stop stop-opacity="1" stop-color="rgb(7.434082%, 35.159302%, 72.04895%)" offset="0.628906"/><stop stop-opacity="1" stop-color="rgb(7.191467%, 34.959412%, 71.911621%)" offset="0.632812"/><stop stop-opacity="1" stop-color="rgb(6.948853%, 34.757996%, 71.772766%)" offset="0.636719"/><stop stop-opacity="1" stop-color="rgb(6.707764%, 34.558105%, 71.633911%)" offset="0.640625"/><stop stop-opacity="1" stop-color="rgb(6.465149%, 34.356689%, 71.495056%)" offset="0.644531"/><stop stop-opacity="1" stop-color="rgb(6.22406%, 34.156799%, 71.357727%)" offset="0.648438"/><stop stop-opacity="1" stop-color="rgb(5.981445%, 33.955383%, 71.218872%)" offset="0.652344"/><stop stop-opacity="1" stop-color="rgb(5.738831%, 33.755493%, 71.081543%)" offset="0.65625"/><stop stop-opacity="1" stop-color="rgb(5.496216%, 33.554077%, 70.942688%)" offset="0.660156"/><stop stop-opacity="1" stop-color="rgb(5.255127%, 33.354187%, 70.803833%)" offset="0.664062"/><stop stop-opacity="1" stop-color="rgb(5.012512%, 33.152771%, 70.664978%)" offset="0.667969"/><stop stop-opacity="1" stop-color="rgb(4.771423%, 32.952881%, 70.527649%)" offset="0.671875"/><stop stop-opacity="1" stop-color="rgb(4.528809%, 32.751465%, 70.388794%)" offset="0.675781"/><stop stop-opacity="1" stop-color="rgb(4.286194%, 32.551575%, 70.249939%)" offset="0.679688"/><stop stop-opacity="1" stop-color="rgb(4.043579%, 32.350159%, 70.111084%)" offset="0.683594"/><stop stop-opacity="1" stop-color="rgb(3.80249%, 32.150269%, 69.973755%)" offset="0.6875"/><stop stop-opacity="1" stop-color="rgb(3.559875%, 31.948853%, 69.8349%)" offset="0.691406"/><stop stop-opacity="1" stop-color="rgb(3.317261%, 31.748962%, 69.696045%)" offset="0.695312"/><stop stop-opacity="1" stop-color="rgb(3.074646%, 31.547546%, 69.55719%)" offset="0.699219"/><stop stop-opacity="1" stop-color="rgb(2.833557%, 31.347656%, 69.419861%)" offset="0.703125"/><stop stop-opacity="1" stop-color="rgb(2.590942%, 31.14624%, 69.281006%)" offset="0.707031"/><stop stop-opacity="1" stop-color="rgb(2.349854%, 30.94635%, 69.142151%)" offset="0.710938"/><stop stop-opacity="1" stop-color="rgb(2.107239%, 30.744934%, 69.003296%)" offset="0.714844"/><stop stop-opacity="1" stop-color="rgb(1.864624%, 30.545044%, 68.865967%)" offset="0.71875"/><stop stop-opacity="1" stop-color="rgb(1.622009%, 30.343628%, 68.727112%)" offset="0.722656"/><stop stop-opacity="1" stop-color="rgb(1.38092%, 30.143738%, 68.589783%)" offset="0.726562"/><stop stop-opacity="1" stop-color="rgb(1.138306%, 29.942322%, 68.450928%)" offset="0.730469"/><stop stop-opacity="1" stop-color="rgb(0.897217%, 29.742432%, 68.312073%)" offset="0.734375"/><stop stop-opacity="1" stop-color="rgb(0.654602%, 29.541016%, 68.173218%)" offset="0.738281"/><stop stop-opacity="1" stop-color="rgb(0.411987%, 29.341125%, 68.035889%)" offset="0.742188"/><stop stop-opacity="1" stop-color="rgb(0.205994%, 29.170227%, 67.91687%)" offset="0.746094"/><stop stop-opacity="1" stop-color="rgb(0%, 28.999329%, 67.799377%)" offset="0.75"/><stop stop-opacity="1" stop-color="rgb(0%, 28.999329%, 67.799377%)" offset="1"/></linearGradient><clipPath id="a6a322d859"><path d="M 149.226562 113.394531 L 169 113.394531 L 169 183 L 149.226562 183 Z M 149.226562 113.394531 " clip-rule="nonzero"/></clipPath><clipPath id="80820e68ec"><path d="M 168 113.394531 L 188 113.394531 L 188 183 L 168 183 Z M 168 113.394531 " clip-rule="nonzero"/></clipPath><clipPath id="a66e92c43b"><path d="M 187 113.394531 L 207 113.394531 L 207 183 L 187 183 Z M 187 113.394531 " clip-rule="nonzero"/></clipPath><clipPath id="208e19057e"><path d="M 206 113.394531 L 225.726562 113.394531 L 225.726562 183 L 206 183 Z M 206 113.394531 " clip-rule="nonzero"/></clipPath></defs><g fill="#0560db" fill-opacity="1"><g transform="translate(74.696485, 266.152483)"><g><path d="M 31.015625 -6.625 L 30.71875 -6.625 C 30.394531 -4.507812 29.316406 -2.753906 27.484375 -1.359375 C 25.660156 0.0234375 23.179688 0.71875 20.046875 0.71875 C 17.648438 0.71875 15.421875 0.257812 13.359375 -0.65625 C 11.296875 -1.570312 9.488281 -2.921875 7.9375 -4.703125 C 6.382812 -6.492188 5.171875 -8.722656 4.296875 -11.390625 C 3.421875 -14.054688 2.984375 -17.140625 2.984375 -20.640625 C 2.984375 -24.140625 3.4375 -27.238281 4.34375 -29.9375 C 5.257812 -32.644531 6.539062 -34.910156 8.1875 -36.734375 C 9.84375 -38.566406 11.820312 -39.957031 14.125 -40.90625 C 16.4375 -41.863281 19.003906 -42.34375 21.828125 -42.34375 C 25.566406 -42.34375 28.785156 -41.535156 31.484375 -39.921875 C 34.191406 -38.316406 36.320312 -35.90625 37.875 -32.6875 L 30.46875 -28.453125 C 29.832031 -30.078125 28.835938 -31.457031 27.484375 -32.59375 C 26.140625 -33.726562 24.253906 -34.296875 21.828125 -34.296875 C 19.003906 -34.296875 16.753906 -33.476562 15.078125 -31.84375 C 13.410156 -30.21875 12.578125 -27.65625 12.578125 -24.15625 L 12.578125 -17.46875 C 12.578125 -14.007812 13.410156 -11.453125 15.078125 -9.796875 C 16.753906 -8.148438 19.003906 -7.328125 21.828125 -7.328125 C 22.941406 -7.328125 23.992188 -7.457031 24.984375 -7.71875 C 25.984375 -7.976562 26.859375 -8.375 27.609375 -8.90625 C 28.367188 -9.445312 28.957031 -10.09375 29.375 -10.84375 C 29.789062 -11.601562 30 -12.5 30 -13.53125 L 30 -15.625 L 22.25 -15.625 L 22.25 -23.203125 L 38.640625 -23.203125 L 38.640625 0 L 31.015625 0 Z M 31.015625 -6.625 "/></g></g></g><g fill="#0560db" fill-opacity="1"><g transform="translate(117.572591, 266.152483)"><g><path d="M 16.8125 0.71875 C 14.507812 0.71875 12.453125 0.34375 10.640625 -0.40625 C 8.835938 -1.164062 7.304688 -2.257812 6.046875 -3.6875 C 4.796875 -5.125 3.832031 -6.851562 3.15625 -8.875 C 2.476562 -10.90625 2.140625 -13.175781 2.140625 -15.6875 C 2.140625 -18.1875 2.476562 -20.453125 3.15625 -22.484375 C 3.832031 -24.515625 4.796875 -26.234375 6.046875 -27.640625 C 7.304688 -29.054688 8.835938 -30.140625 10.640625 -30.890625 C 12.453125 -31.648438 14.507812 -32.03125 16.8125 -32.03125 C 19.125 -32.03125 21.179688 -31.648438 22.984375 -30.890625 C 24.796875 -30.140625 26.328125 -29.054688 27.578125 -27.640625 C 28.835938 -26.234375 29.800781 -24.515625 30.46875 -22.484375 C 31.144531 -20.453125 31.484375 -18.1875 31.484375 -15.6875 C 31.484375 -13.175781 31.144531 -10.90625 30.46875 -8.875 C 29.800781 -6.851562 28.835938 -5.125 27.578125 -3.6875 C 26.328125 -2.257812 24.796875 -1.164062 22.984375 -0.40625 C 21.179688 0.34375 19.125 0.71875 16.8125 0.71875 Z M 16.8125 -6.265625 C 18.5625 -6.265625 19.914062 -6.800781 20.875 -7.875 C 21.832031 -8.945312 22.3125 -10.476562 22.3125 -12.46875 L 22.3125 -18.84375 C 22.3125 -20.832031 21.832031 -22.363281 20.875 -23.4375 C 19.914062 -24.507812 18.5625 -25.046875 16.8125 -25.046875 C 15.0625 -25.046875 13.707031 -24.507812 12.75 -23.4375 C 11.800781 -22.363281 11.328125 -20.832031 11.328125 -18.84375 L 11.328125 -12.46875 C 11.328125 -10.476562 11.800781 -8.945312 12.75 -7.875 C 13.707031 -6.800781 15.0625 -6.265625 16.8125 -6.265625 Z M 16.8125 -6.265625 "/></g></g></g><g fill="#0560db" fill-opacity="1"><g transform="translate(151.205589, 266.152483)"><g><path d="M 35.71875 -27.3125 L 35.546875 -27.3125 L 32.5 -21.234375 L 24.390625 -6.5 L 16.453125 -21.171875 L 13.296875 -27.734375 L 13.125 -27.734375 L 13.125 0 L 4.59375 0 L 4.59375 -41.625 L 14.1875 -41.625 L 24.390625 -22.125 L 24.515625 -22.125 L 34.59375 -41.625 L 44.25 -41.625 L 44.25 0 L 35.71875 0 Z M 35.71875 -27.3125 "/></g></g></g><g fill="#0560db" fill-opacity="1"><g transform="translate(200.044991, 266.152483)"><g><path d="M 27.25 0 C 25.664062 0 24.34375 -0.492188 23.28125 -1.484375 C 22.226562 -2.484375 21.566406 -3.816406 21.296875 -5.484375 L 20.9375 -5.484375 C 20.457031 -3.453125 19.398438 -1.910156 17.765625 -0.859375 C 16.140625 0.191406 14.132812 0.71875 11.75 0.71875 C 8.601562 0.71875 6.195312 -0.113281 4.53125 -1.78125 C 2.863281 -3.457031 2.03125 -5.664062 2.03125 -8.40625 C 2.03125 -11.707031 3.234375 -14.160156 5.640625 -15.765625 C 8.046875 -17.378906 11.316406 -18.1875 15.453125 -18.1875 L 20.390625 -18.1875 L 20.390625 -20.15625 C 20.390625 -21.664062 19.992188 -22.867188 19.203125 -23.765625 C 18.410156 -24.660156 17.078125 -25.109375 15.203125 -25.109375 C 13.453125 -25.109375 12.0625 -24.726562 11.03125 -23.96875 C 10 -23.21875 9.144531 -22.363281 8.46875 -21.40625 L 3.21875 -26.0625 C 4.488281 -27.925781 6.085938 -29.382812 8.015625 -30.4375 C 9.953125 -31.5 12.566406 -32.03125 15.859375 -32.03125 C 20.316406 -32.03125 23.65625 -31.054688 25.875 -29.109375 C 28.101562 -27.160156 29.21875 -24.316406 29.21875 -20.578125 L 29.21875 -6.859375 L 32.140625 -6.859375 L 32.140625 0 Z M 15.03125 -5.421875 C 16.5 -5.421875 17.757812 -5.738281 18.8125 -6.375 C 19.863281 -7.007812 20.390625 -8.046875 20.390625 -9.484375 L 20.390625 -13.1875 L 16.109375 -13.1875 C 12.648438 -13.1875 10.921875 -12.007812 10.921875 -9.65625 L 10.921875 -8.765625 C 10.921875 -7.609375 11.273438 -6.757812 11.984375 -6.21875 C 12.703125 -5.6875 13.71875 -5.421875 15.03125 -5.421875 Z M 15.03125 -5.421875 "/></g></g></g><g fill="#0560db" fill-opacity="1"><g transform="translate(233.976149, 266.152483)"><g><path d="M 4.109375 -31.3125 L 12.9375 -31.3125 L 12.9375 -26.0625 L 13.234375 -26.0625 C 13.671875 -27.8125 14.675781 -29.242188 16.25 -30.359375 C 17.820312 -31.472656 19.625 -32.03125 21.65625 -32.03125 C 25.625 -32.03125 28.625 -30.632812 30.65625 -27.84375 C 32.6875 -25.0625 33.703125 -21.007812 33.703125 -15.6875 C 33.703125 -10.351562 32.6875 -6.285156 30.65625 -3.484375 C 28.625 -0.679688 25.625 0.71875 21.65625 0.71875 C 20.613281 0.71875 19.632812 0.566406 18.71875 0.265625 C 17.8125 -0.0234375 16.988281 -0.441406 16.25 -0.984375 C 15.519531 -1.523438 14.894531 -2.160156 14.375 -2.890625 C 13.851562 -3.628906 13.472656 -4.414062 13.234375 -5.25 L 12.9375 -5.25 L 12.9375 11.921875 L 4.109375 11.921875 Z M 18.734375 -6.4375 C 20.398438 -6.4375 21.78125 -7.019531 22.875 -8.1875 C 23.96875 -9.363281 24.515625 -10.945312 24.515625 -12.9375 L 24.515625 -18.375 C 24.515625 -20.351562 23.96875 -21.929688 22.875 -23.109375 C 21.78125 -24.285156 20.398438 -24.875 18.734375 -24.875 C 17.054688 -24.875 15.671875 -24.460938 14.578125 -23.640625 C 13.484375 -22.828125 12.9375 -21.707031 12.9375 -20.28125 L 12.9375 -11.03125 C 12.9375 -9.601562 13.484375 -8.476562 14.578125 -7.65625 C 15.671875 -6.84375 17.054688 -6.4375 18.734375 -6.4375 Z M 18.734375 -6.4375 "/></g></g></g><g fill="#0560db" fill-opacity="1"><g transform="translate(270.233003, 266.152483)"><g><path d="M 14.734375 0.71875 C 11.710938 0.71875 9.164062 0.234375 7.09375 -0.734375 C 5.03125 -1.710938 3.179688 -3.097656 1.546875 -4.890625 L 6.734375 -10.140625 C 7.847656 -8.910156 9.082031 -7.9375 10.4375 -7.21875 C 11.789062 -6.5 13.320312 -6.140625 15.03125 -6.140625 C 16.78125 -6.140625 17.992188 -6.40625 18.671875 -6.9375 C 19.347656 -7.476562 19.6875 -8.207031 19.6875 -9.125 C 19.6875 -10.59375 18.628906 -11.46875 16.515625 -11.75 L 13.125 -12.171875 C 6.082031 -13.046875 2.5625 -16.265625 2.5625 -21.828125 C 2.5625 -23.335938 2.847656 -24.71875 3.421875 -25.96875 C 4.003906 -27.226562 4.820312 -28.300781 5.875 -29.1875 C 6.925781 -30.082031 8.195312 -30.78125 9.6875 -31.28125 C 11.175781 -31.78125 12.859375 -32.03125 14.734375 -32.03125 C 16.359375 -32.03125 17.796875 -31.921875 19.046875 -31.703125 C 20.304688 -31.484375 21.421875 -31.164062 22.390625 -30.75 C 23.367188 -30.332031 24.265625 -29.8125 25.078125 -29.1875 C 25.890625 -28.570312 26.695312 -27.890625 27.5 -27.140625 L 22.421875 -21.953125 C 21.429688 -22.941406 20.304688 -23.722656 19.046875 -24.296875 C 17.796875 -24.878906 16.515625 -25.171875 15.203125 -25.171875 C 13.691406 -25.171875 12.617188 -24.929688 11.984375 -24.453125 C 11.347656 -23.972656 11.03125 -23.335938 11.03125 -22.546875 C 11.03125 -21.710938 11.257812 -21.066406 11.71875 -20.609375 C 12.175781 -20.148438 13.039062 -19.820312 14.3125 -19.625 L 17.828125 -19.140625 C 24.710938 -18.222656 28.15625 -15.082031 28.15625 -9.71875 C 28.15625 -8.207031 27.832031 -6.816406 27.1875 -5.546875 C 26.550781 -4.273438 25.644531 -3.171875 24.46875 -2.234375 C 23.300781 -1.296875 21.890625 -0.566406 20.234375 -0.046875 C 18.585938 0.460938 16.753906 0.71875 14.734375 0.71875 Z M 14.734375 0.71875 "/></g></g></g><g clip-path="url(#46131ea28a)"><g clip-path="url(#3c895510ed)"><path fill="url(#b41e6dccd8)" d="M 128.921875 206.5625 L 245.921875 206.5625 L 245.921875 89.5625 L 128.921875 89.5625 Z M 128.921875 206.5625 " fill-rule="nonzero"/></g></g><g clip-path="url(#a6a322d859)"><path fill="#ffffff" d="M 149.367188 182.875 L 168.410156 159.691406 L 168.410156 113.394531 L 149.28125 136.683594 Z M 149.367188 182.875 " fill-opacity="1" fill-rule="nonzero"/></g><g clip-path="url(#80820e68ec)"><path fill="#5271ff" d="M 168.410156 113.394531 L 187.492188 136.574219 L 187.492188 182.875 L 168.410156 159.585938 Z M 168.410156 113.394531 " fill-opacity="1" fill-rule="nonzero"/></g><g clip-path="url(#a66e92c43b)"><path fill="#38b6ff" d="M 187.578125 182.875 L 206.621094 159.691406 L 206.621094 113.394531 L 187.492188 136.683594 Z M 187.578125 182.875 " fill-opacity="1" fill-rule="nonzero"/></g><g clip-path="url(#208e19057e)"><path fill="#5271ff" d="M 206.621094 113.394531 L 225.707031 136.574219 L 225.707031 182.875 L 206.621094 159.585938 Z M 206.621094 113.394531 " fill-opacity="1" fill-rule="nonzero"/></g><g fill="#352359" fill-opacity="1"><g transform="translate(123.899571, 297.660362)"><g><path d="M 4.328125 -4.921875 L 3.328125 -7 L 3.28125 -7 L 3.28125 0 L 1.140625 0 L 1.140625 -10.40625 L 3.625 -10.40625 L 6.46875 -5.484375 L 7.46875 -3.40625 L 7.515625 -3.40625 L 7.515625 -10.40625 L 9.640625 -10.40625 L 9.640625 0 L 7.171875 0 Z M 4.328125 -4.921875 "/></g></g></g><g fill="#352359" fill-opacity="1"><g transform="translate(135.85473, 297.660362)"><g><path d="M 6.8125 0 C 6.414062 0 6.082031 -0.125 5.8125 -0.375 C 5.550781 -0.625 5.390625 -0.957031 5.328125 -1.375 L 5.234375 -1.375 C 5.109375 -0.863281 4.84375 -0.476562 4.4375 -0.21875 C 4.03125 0.0390625 3.53125 0.171875 2.9375 0.171875 C 2.15625 0.171875 1.550781 -0.0351562 1.125 -0.453125 C 0.707031 -0.867188 0.5 -1.421875 0.5 -2.109375 C 0.5 -2.929688 0.800781 -3.539062 1.40625 -3.9375 C 2.007812 -4.34375 2.828125 -4.546875 3.859375 -4.546875 L 5.09375 -4.546875 L 5.09375 -5.03125 C 5.09375 -5.414062 4.992188 -5.71875 4.796875 -5.9375 C 4.597656 -6.164062 4.265625 -6.28125 3.796875 -6.28125 C 3.359375 -6.28125 3.007812 -6.179688 2.75 -5.984375 C 2.5 -5.796875 2.285156 -5.582031 2.109375 -5.34375 L 0.8125 -6.515625 C 1.125 -6.984375 1.519531 -7.347656 2 -7.609375 C 2.488281 -7.867188 3.144531 -8 3.96875 -8 C 5.082031 -8 5.914062 -7.753906 6.46875 -7.265625 C 7.019531 -6.785156 7.296875 -6.078125 7.296875 -5.140625 L 7.296875 -1.71875 L 8.03125 -1.71875 L 8.03125 0 Z M 3.75 -1.359375 C 4.125 -1.359375 4.441406 -1.4375 4.703125 -1.59375 C 4.960938 -1.75 5.09375 -2.007812 5.09375 -2.375 L 5.09375 -3.296875 L 4.03125 -3.296875 C 3.164062 -3.296875 2.734375 -3.003906 2.734375 -2.421875 L 2.734375 -2.1875 C 2.734375 -1.90625 2.820312 -1.695312 3 -1.5625 C 3.175781 -1.425781 3.425781 -1.359375 3.75 -1.359375 Z M 3.75 -1.359375 "/></g></g></g><g fill="#352359" fill-opacity="1"><g transform="translate(145.499408, 297.660362)"><g><path d="M 2.703125 0 L 0.140625 -7.828125 L 2.3125 -7.828125 L 3.28125 -4.671875 L 4.015625 -1.828125 L 4.125 -1.828125 L 4.859375 -4.671875 L 5.796875 -7.828125 L 7.890625 -7.828125 L 5.328125 0 Z M 2.703125 0 "/></g></g></g><g fill="#352359" fill-opacity="1"><g transform="translate(154.681996, 297.660362)"><g><path d="M 2.125 -8.65625 C 1.675781 -8.65625 1.347656 -8.753906 1.140625 -8.953125 C 0.941406 -9.160156 0.84375 -9.425781 0.84375 -9.75 L 0.84375 -10.078125 C 0.84375 -10.390625 0.941406 -10.648438 1.140625 -10.859375 C 1.347656 -11.066406 1.675781 -11.171875 2.125 -11.171875 C 2.570312 -11.171875 2.894531 -11.066406 3.09375 -10.859375 C 3.300781 -10.648438 3.40625 -10.390625 3.40625 -10.078125 L 3.40625 -9.75 C 3.40625 -9.425781 3.300781 -9.160156 3.09375 -8.953125 C 2.894531 -8.753906 2.570312 -8.65625 2.125 -8.65625 Z M 1.03125 -7.828125 L 3.234375 -7.828125 L 3.234375 0 L 1.03125 0 Z M 1.03125 -7.828125 "/></g></g></g><g fill="#352359" fill-opacity="1"><g transform="translate(160.108198, 297.660362)"><g><path d="M 8.265625 0.5625 C 8.265625 0.976562 8.191406 1.34375 8.046875 1.65625 C 7.910156 1.976562 7.675781 2.25 7.34375 2.46875 C 7.019531 2.695312 6.585938 2.867188 6.046875 2.984375 C 5.503906 3.097656 4.835938 3.15625 4.046875 3.15625 C 3.367188 3.15625 2.789062 3.113281 2.3125 3.03125 C 1.84375 2.945312 1.460938 2.828125 1.171875 2.671875 C 0.878906 2.515625 0.664062 2.328125 0.53125 2.109375 C 0.394531 1.890625 0.328125 1.632812 0.328125 1.34375 C 0.328125 0.90625 0.457031 0.5625 0.71875 0.3125 C 0.976562 0.0625 1.332031 -0.09375 1.78125 -0.15625 L 1.78125 -0.3125 C 1.40625 -0.382812 1.125 -0.546875 0.9375 -0.796875 C 0.75 -1.046875 0.65625 -1.34375 0.65625 -1.6875 C 0.65625 -1.894531 0.695312 -2.070312 0.78125 -2.21875 C 0.863281 -2.375 0.972656 -2.507812 1.109375 -2.625 C 1.242188 -2.738281 1.398438 -2.832031 1.578125 -2.90625 C 1.753906 -2.976562 1.929688 -3.035156 2.109375 -3.078125 L 2.109375 -3.125 C 1.640625 -3.34375 1.289062 -3.644531 1.0625 -4.03125 C 0.832031 -4.414062 0.71875 -4.859375 0.71875 -5.359375 C 0.71875 -6.160156 0.992188 -6.800781 1.546875 -7.28125 C 2.097656 -7.757812 2.9375 -8 4.0625 -8 C 4.582031 -8 5.023438 -7.953125 5.390625 -7.859375 L 5.390625 -8.15625 C 5.390625 -8.570312 5.488281 -8.867188 5.6875 -9.046875 C 5.894531 -9.234375 6.191406 -9.328125 6.578125 -9.328125 L 7.8125 -9.328125 L 7.8125 -7.6875 L 6.078125 -7.6875 L 6.078125 -7.609375 C 6.535156 -7.390625 6.875 -7.085938 7.09375 -6.703125 C 7.3125 -6.316406 7.421875 -5.867188 7.421875 -5.359375 C 7.421875 -4.578125 7.144531 -3.945312 6.59375 -3.46875 C 6.039062 -3 5.195312 -2.765625 4.0625 -2.765625 C 3.5625 -2.765625 3.101562 -2.820312 2.6875 -2.9375 C 2.457031 -2.789062 2.34375 -2.582031 2.34375 -2.3125 C 2.34375 -2.125 2.410156 -1.976562 2.546875 -1.875 C 2.691406 -1.769531 2.9375 -1.71875 3.28125 -1.71875 L 5.546875 -1.71875 C 6.492188 -1.71875 7.179688 -1.515625 7.609375 -1.109375 C 8.046875 -0.710938 8.265625 -0.15625 8.265625 0.5625 Z M 6.203125 0.859375 C 6.203125 0.628906 6.113281 0.453125 5.9375 0.328125 C 5.757812 0.210938 5.445312 0.15625 5 0.15625 L 2.3125 0.15625 C 2.207031 0.257812 2.132812 0.375 2.09375 0.5 C 2.050781 0.625 2.03125 0.742188 2.03125 0.859375 C 2.03125 1.148438 2.148438 1.363281 2.390625 1.5 C 2.640625 1.632812 3.066406 1.703125 3.671875 1.703125 L 4.5625 1.703125 C 5.15625 1.703125 5.578125 1.632812 5.828125 1.5 C 6.078125 1.363281 6.203125 1.148438 6.203125 0.859375 Z M 4.0625 -4.21875 C 4.5 -4.21875 4.820312 -4.304688 5.03125 -4.484375 C 5.25 -4.671875 5.359375 -4.941406 5.359375 -5.296875 L 5.359375 -5.46875 C 5.359375 -5.820312 5.25 -6.085938 5.03125 -6.265625 C 4.820312 -6.453125 4.5 -6.546875 4.0625 -6.546875 C 3.625 -6.546875 3.296875 -6.453125 3.078125 -6.265625 C 2.867188 -6.085938 2.765625 -5.820312 2.765625 -5.46875 L 2.765625 -5.296875 C 2.765625 -4.941406 2.867188 -4.671875 3.078125 -4.484375 C 3.296875 -4.304688 3.625 -4.21875 4.0625 -4.21875 Z M 4.0625 -4.21875 "/></g></g></g><g fill="#352359" fill-opacity="1"><g transform="translate(169.499468, 297.660362)"><g><path d="M 6.8125 0 C 6.414062 0 6.082031 -0.125 5.8125 -0.375 C 5.550781 -0.625 5.390625 -0.957031 5.328125 -1.375 L 5.234375 -1.375 C 5.109375 -0.863281 4.84375 -0.476562 4.4375 -0.21875 C 4.03125 0.0390625 3.53125 0.171875 2.9375 0.171875 C 2.15625 0.171875 1.550781 -0.0351562 1.125 -0.453125 C 0.707031 -0.867188 0.5 -1.421875 0.5 -2.109375 C 0.5 -2.929688 0.800781 -3.539062 1.40625 -3.9375 C 2.007812 -4.34375 2.828125 -4.546875 3.859375 -4.546875 L 5.09375 -4.546875 L 5.09375 -5.03125 C 5.09375 -5.414062 4.992188 -5.71875 4.796875 -5.9375 C 4.597656 -6.164062 4.265625 -6.28125 3.796875 -6.28125 C 3.359375 -6.28125 3.007812 -6.179688 2.75 -5.984375 C 2.5 -5.796875 2.285156 -5.582031 2.109375 -5.34375 L 0.8125 -6.515625 C 1.125 -6.984375 1.519531 -7.347656 2 -7.609375 C 2.488281 -7.867188 3.144531 -8 3.96875 -8 C 5.082031 -8 5.914062 -7.753906 6.46875 -7.265625 C 7.019531 -6.785156 7.296875 -6.078125 7.296875 -5.140625 L 7.296875 -1.71875 L 8.03125 -1.71875 L 8.03125 0 Z M 3.75 -1.359375 C 4.125 -1.359375 4.441406 -1.4375 4.703125 -1.59375 C 4.960938 -1.75 5.09375 -2.007812 5.09375 -2.375 L 5.09375 -3.296875 L 4.03125 -3.296875 C 3.164062 -3.296875 2.734375 -3.003906 2.734375 -2.421875 L 2.734375 -2.1875 C 2.734375 -1.90625 2.820312 -1.695312 3 -1.5625 C 3.175781 -1.425781 3.425781 -1.359375 3.75 -1.359375 Z M 3.75 -1.359375 "/></g></g></g><g fill="#352359" fill-opacity="1"><g transform="translate(179.144147, 297.660362)"><g><path d="M 3.765625 0 C 3.003906 0 2.425781 -0.191406 2.03125 -0.578125 C 1.644531 -0.960938 1.453125 -1.53125 1.453125 -2.28125 L 1.453125 -6.109375 L 0.34375 -6.109375 L 0.34375 -7.828125 L 0.890625 -7.828125 C 1.191406 -7.828125 1.394531 -7.898438 1.5 -8.046875 C 1.613281 -8.191406 1.671875 -8.394531 1.671875 -8.65625 L 1.671875 -9.9375 L 3.65625 -9.9375 L 3.65625 -7.828125 L 5.203125 -7.828125 L 5.203125 -6.109375 L 3.65625 -6.109375 L 3.65625 -1.71875 L 5.078125 -1.71875 L 5.078125 0 Z M 3.765625 0 "/></g></g></g><g fill="#352359" fill-opacity="1"><g transform="translate(186.016255, 297.660362)"><g><path d="M 2.125 -8.65625 C 1.675781 -8.65625 1.347656 -8.753906 1.140625 -8.953125 C 0.941406 -9.160156 0.84375 -9.425781 0.84375 -9.75 L 0.84375 -10.078125 C 0.84375 -10.390625 0.941406 -10.648438 1.140625 -10.859375 C 1.347656 -11.066406 1.675781 -11.171875 2.125 -11.171875 C 2.570312 -11.171875 2.894531 -11.066406 3.09375 -10.859375 C 3.300781 -10.648438 3.40625 -10.390625 3.40625 -10.078125 L 3.40625 -9.75 C 3.40625 -9.425781 3.300781 -9.160156 3.09375 -8.953125 C 2.894531 -8.753906 2.570312 -8.65625 2.125 -8.65625 Z M 1.03125 -7.828125 L 3.234375 -7.828125 L 3.234375 0 L 1.03125 0 Z M 1.03125 -7.828125 "/></g></g></g><g fill="#352359" fill-opacity="1"><g transform="translate(191.442459, 297.660362)"><g><path d="M 4.203125 0.171875 C 3.628906 0.171875 3.113281 0.078125 2.65625 -0.109375 C 2.207031 -0.296875 1.828125 -0.566406 1.515625 -0.921875 C 1.203125 -1.273438 0.957031 -1.707031 0.78125 -2.21875 C 0.613281 -2.726562 0.53125 -3.296875 0.53125 -3.921875 C 0.53125 -4.546875 0.613281 -5.109375 0.78125 -5.609375 C 0.957031 -6.117188 1.203125 -6.550781 1.515625 -6.90625 C 1.828125 -7.257812 2.207031 -7.53125 2.65625 -7.71875 C 3.113281 -7.90625 3.628906 -8 4.203125 -8 C 4.773438 -8 5.285156 -7.90625 5.734375 -7.71875 C 6.191406 -7.53125 6.578125 -7.257812 6.890625 -6.90625 C 7.203125 -6.550781 7.441406 -6.117188 7.609375 -5.609375 C 7.785156 -5.109375 7.875 -4.546875 7.875 -3.921875 C 7.875 -3.296875 7.785156 -2.726562 7.609375 -2.21875 C 7.441406 -1.707031 7.203125 -1.273438 6.890625 -0.921875 C 6.578125 -0.566406 6.191406 -0.296875 5.734375 -0.109375 C 5.285156 0.078125 4.773438 0.171875 4.203125 0.171875 Z M 4.203125 -1.5625 C 4.640625 -1.5625 4.976562 -1.695312 5.21875 -1.96875 C 5.457031 -2.238281 5.578125 -2.617188 5.578125 -3.109375 L 5.578125 -4.703125 C 5.578125 -5.203125 5.457031 -5.585938 5.21875 -5.859375 C 4.976562 -6.128906 4.640625 -6.265625 4.203125 -6.265625 C 3.765625 -6.265625 3.425781 -6.128906 3.1875 -5.859375 C 2.945312 -5.585938 2.828125 -5.203125 2.828125 -4.703125 L 2.828125 -3.109375 C 2.828125 -2.617188 2.945312 -2.238281 3.1875 -1.96875 C 3.425781 -1.695312 3.765625 -1.5625 4.203125 -1.5625 Z M 4.203125 -1.5625 "/></g></g></g><g fill="#352359" fill-opacity="1"><g transform="translate(201.012615, 297.660362)"><g><path d="M 1.03125 0 L 1.03125 -7.828125 L 3.234375 -7.828125 L 3.234375 -6.5 L 3.328125 -6.5 C 3.460938 -6.90625 3.703125 -7.253906 4.046875 -7.546875 C 4.398438 -7.847656 4.882812 -8 5.5 -8 C 6.300781 -8 6.90625 -7.726562 7.3125 -7.1875 C 7.726562 -6.65625 7.9375 -5.894531 7.9375 -4.90625 L 7.9375 0 L 5.734375 0 L 5.734375 -4.71875 C 5.734375 -5.226562 5.65625 -5.601562 5.5 -5.84375 C 5.34375 -6.09375 5.0625 -6.21875 4.65625 -6.21875 C 4.46875 -6.21875 4.289062 -6.191406 4.125 -6.140625 C 3.957031 -6.097656 3.804688 -6.023438 3.671875 -5.921875 C 3.535156 -5.828125 3.425781 -5.707031 3.34375 -5.5625 C 3.269531 -5.414062 3.234375 -5.25 3.234375 -5.0625 L 3.234375 0 Z M 1.03125 0 "/></g></g></g><g fill="#352359" fill-opacity="1"><g transform="translate(211.059771, 297.660362)"><g/></g></g><g fill="#352359" fill-opacity="1"><g transform="translate(215.740656, 297.660362)"><g><path d="M 7.5625 0 L 6.8125 -2.46875 L 3.34375 -2.46875 L 2.59375 0 L 0.296875 0 L 3.71875 -10.40625 L 6.53125 -10.40625 L 9.90625 0 Z M 5.09375 -8.34375 L 5.015625 -8.34375 L 3.875 -4.390625 L 6.265625 -4.390625 Z M 5.09375 -8.34375 "/></g></g></g><g fill="#352359" fill-opacity="1"><g transform="translate(227.114469, 297.660362)"><g><path d="M 1.03125 -7.828125 L 3.234375 -7.828125 L 3.234375 -6.515625 L 3.3125 -6.515625 C 3.414062 -6.953125 3.664062 -7.304688 4.0625 -7.578125 C 4.457031 -7.859375 4.90625 -8 5.40625 -8 C 6.40625 -8 7.15625 -7.648438 7.65625 -6.953125 C 8.164062 -6.265625 8.421875 -5.253906 8.421875 -3.921875 C 8.421875 -2.585938 8.164062 -1.570312 7.65625 -0.875 C 7.15625 -0.175781 6.40625 0.171875 5.40625 0.171875 C 5.144531 0.171875 4.898438 0.132812 4.671875 0.0625 C 4.453125 -0.0078125 4.25 -0.113281 4.0625 -0.25 C 3.875 -0.382812 3.71875 -0.539062 3.59375 -0.71875 C 3.46875 -0.90625 3.375 -1.101562 3.3125 -1.3125 L 3.234375 -1.3125 L 3.234375 2.984375 L 1.03125 2.984375 Z M 4.6875 -1.609375 C 5.101562 -1.609375 5.445312 -1.753906 5.71875 -2.046875 C 5.988281 -2.335938 6.125 -2.734375 6.125 -3.234375 L 6.125 -4.59375 C 6.125 -5.09375 5.988281 -5.488281 5.71875 -5.78125 C 5.445312 -6.070312 5.101562 -6.21875 4.6875 -6.21875 C 4.257812 -6.21875 3.910156 -6.113281 3.640625 -5.90625 C 3.367188 -5.707031 3.234375 -5.425781 3.234375 -5.0625 L 3.234375 -2.75 C 3.234375 -2.394531 3.367188 -2.113281 3.640625 -1.90625 C 3.910156 -1.707031 4.257812 -1.609375 4.6875 -1.609375 Z M 4.6875 -1.609375 "/></g></g></g><g fill="#352359" fill-opacity="1"><g transform="translate(237.340497, 297.660362)"><g><path d="M 1.03125 -7.828125 L 3.234375 -7.828125 L 3.234375 -6.515625 L 3.3125 -6.515625 C 3.414062 -6.953125 3.664062 -7.304688 4.0625 -7.578125 C 4.457031 -7.859375 4.90625 -8 5.40625 -8 C 6.40625 -8 7.15625 -7.648438 7.65625 -6.953125 C 8.164062 -6.265625 8.421875 -5.253906 8.421875 -3.921875 C 8.421875 -2.585938 8.164062 -1.570312 7.65625 -0.875 C 7.15625 -0.175781 6.40625 0.171875 5.40625 0.171875 C 5.144531 0.171875 4.898438 0.132812 4.671875 0.0625 C 4.453125 -0.0078125 4.25 -0.113281 4.0625 -0.25 C 3.875 -0.382812 3.71875 -0.539062 3.59375 -0.71875 C 3.46875 -0.90625 3.375 -1.101562 3.3125 -1.3125 L 3.234375 -1.3125 L 3.234375 2.984375 L 1.03125 2.984375 Z M 4.6875 -1.609375 C 5.101562 -1.609375 5.445312 -1.753906 5.71875 -2.046875 C 5.988281 -2.335938 6.125 -2.734375 6.125 -3.234375 L 6.125 -4.59375 C 6.125 -5.09375 5.988281 -5.488281 5.71875 -5.78125 C 5.445312 -6.070312 5.101562 -6.21875 4.6875 -6.21875 C 4.257812 -6.21875 3.910156 -6.113281 3.640625 -5.90625 C 3.367188 -5.707031 3.234375 -5.425781 3.234375 -5.0625 L 3.234375 -2.75 C 3.234375 -2.394531 3.367188 -2.113281 3.640625 -1.90625 C 3.910156 -1.707031 4.257812 -1.609375 4.6875 -1.609375 Z M 4.6875 -1.609375 "/></g></g></g><g fill="#352359" fill-opacity="1"><g transform="translate(247.567536, 297.660362)"><g/></g></g></svg>